<?xml version="1.0" encoding="utf-8"?>
<!-- <svg viewBox="0 0 500 500" xmlns="http://www.w3.org/2000/svg" xmlns:bx="https://boxy-svg.com"> -->
<svg viewBox="0 0 500 500" xmlns="http://www.w3.org/2000/svg">
  <defs>
    <bx:grid x="0" y="0" width="35.627" height="35.627"/>
  </defs>
  <g style="" transform="matrix(1.033713, 0, 0, 1.163489, -8.635813, -39.226891)">
    <rect id="rect3713" width="41" height="150.977" x="97.402" y="52.35" style="fill: rgb(0, 0, 0); fill-opacity: 0.318966; stroke: rgb(0, 0, 0); stroke-width: 0.260666; stroke-miterlimit: 4; stroke-dasharray: none; stroke-opacity: 1;"/>
    <rect id="rect3713-3" width="41" height="89.908" x="154.293" y="113.419" style="fill: rgb(0, 0, 0); fill-opacity: 0.318966; stroke: rgb(0, 0, 0); stroke-width: 0.260666; stroke-miterlimit: 4; stroke-dasharray: none; stroke-opacity: 1;"/>
    <rect id="rect3713-3-6" width="41" height="116.322" y="86.924" style="fill: rgb(0, 0, 0); fill-opacity: 0.318966; stroke: rgb(0, 0, 0); stroke-width: 0.296103; stroke-miterlimit: 4; stroke-dasharray: none; stroke-opacity: 1;" x="40.511"/>
  </g>
  <line style="stroke: rgb(0, 0, 0);" x1="285.989" y1="21.682" x2="285.989" y2="209.483"/>
  <line style="stroke: rgb(0, 0, 0);" x1="285.989" y1="209.483" x2="472.424" y2="209.483"/>
  <g transform="matrix(1.033713, 0, 0, 1.163489, 193.681198, -214.393478)" style="">
    <title>x1</title>
    <g style="" transform="matrix(0.623474, 0, 0, 0.623474, 78.575905, 89.127907)">
      <line style="stroke: rgb(0, 0, 0);" x1="215.982" y1="233.689" x2="215.982" y2="254.324" transform="matrix(0.707107, 0.707107, -0.707107, 0.707107, 235.798313, -81.254484)"/>
      <line style="stroke: rgb(0, 0, 0);" x1="215.982" y1="233.689" x2="215.982" y2="254.324" transform="matrix(-0.707107, 0.707107, -0.707107, -0.707107, 541.242979, 263.822818)"/>
    </g>
  </g>
  <g transform="matrix(1.033713, 0, 0, 1.163489, 234.946289, -195.666336)" style="">
    <title>x2</title>
    <g style="" transform="matrix(0.623474, 0, 0, 0.623474, 78.575905, 89.127907)">
      <line style="stroke: rgb(0, 0, 0);" x1="215.982" y1="233.689" x2="215.982" y2="254.324" transform="matrix(0.707107, 0.707107, -0.707107, 0.707107, 235.798313, -81.254484)"/>
      <line style="stroke: rgb(0, 0, 0);" x1="215.982" y1="233.689" x2="215.982" y2="254.324" transform="matrix(-0.707107, 0.707107, -0.707107, -0.707107, 541.242979, 263.822818)"/>
    </g>
  </g>
  <g transform="matrix(1.033713, 0, 0, 1.163489, 231.055573, -250.093079)" style="">
    <title>x3</title>
    <g style="" transform="matrix(0.623474, 0, 0, 0.623474, 78.575905, 89.127907)">
      <line style="stroke: rgb(0, 0, 0);" x1="215.982" y1="233.689" x2="215.982" y2="254.324" transform="matrix(0.707107, 0.707107, -0.707107, 0.707107, 235.798313, -81.254484)"/>
      <line style="stroke: rgb(0, 0, 0);" x1="215.982" y1="233.689" x2="215.982" y2="254.324" transform="matrix(-0.707107, 0.707107, -0.707107, -0.707107, 541.242979, 263.822818)"/>
    </g>
  </g>
  <g transform="matrix(1.033713, 0, 0, 1.163489, 118.780731, -116.215752)" style="">
    <desc>x pour scatterchart
</desc>
    <title>x4</title>
    <g style="" transform="matrix(0.623474, 0, 0, 0.623474, 78.575905, 89.127907)">
      <line style="stroke: rgb(0, 0, 0);" x1="215.982" y1="233.689" x2="215.982" y2="254.324" transform="matrix(0.707107, 0.707107, -0.707107, 0.707107, 235.798313, -81.254484)"/>
      <line style="stroke: rgb(0, 0, 0);" x1="215.982" y1="233.689" x2="215.982" y2="254.324" transform="matrix(-0.707107, 0.707107, -0.707107, -0.707107, 541.242979, 263.822818)"/>
    </g>
  </g>
  <g transform="matrix(1.033713, 0, 0, 1.163489, 186.03447, -155.628235)" style="">
    <desc>x pour scatterchart
</desc>
    <title>x5</title>
    <g style="" transform="matrix(0.623474, 0, 0, 0.623474, 78.575905, 89.127907)">
      <line style="stroke: rgb(0, 0, 0);" x1="215.982" y1="233.689" x2="215.982" y2="254.324" transform="matrix(0.707107, 0.707107, -0.707107, 0.707107, 235.798313, -81.254484)"/>
      <line style="stroke: rgb(0, 0, 0);" x1="215.982" y1="233.689" x2="215.982" y2="254.324" transform="matrix(-0.707107, 0.707107, -0.707107, -0.707107, 541.242979, 263.822818)"/>
    </g>
  </g>
  <g transform="matrix(1.033713, 0, 0, 1.163489, 110.999306, -144.367538)" style="">
    <desc>x pour scatterchart
</desc>
    <title>x6</title>
    <g style="" transform="matrix(0.623474, 0, 0, 0.623474, 78.575905, 89.127907)">
      <line style="stroke: rgb(0, 0, 0);" x1="215.982" y1="233.689" x2="215.982" y2="254.324" transform="matrix(0.707107, 0.707107, -0.707107, 0.707107, 235.798313, -81.254484)"/>
      <line style="stroke: rgb(0, 0, 0);" x1="215.982" y1="233.689" x2="215.982" y2="254.324" transform="matrix(-0.707107, 0.707107, -0.707107, -0.707107, 541.242979, 263.822818)"/>
    </g>
  </g>
  <g transform="matrix(1.033713, 0, 0, 1.163489, 149.906418, -146.244308)" style="">
    <desc>x pour scatterchart
</desc>
    <title>x7</title>
    <g style="" transform="matrix(0.623474, 0, 0, 0.623474, 78.575905, 89.127907)">
      <line style="stroke: rgb(0, 0, 0);" x1="215.982" y1="233.689" x2="215.982" y2="254.324" transform="matrix(0.707107, 0.707107, -0.707107, 0.707107, 235.798313, -81.254484)"/>
      <line style="stroke: rgb(0, 0, 0);" x1="215.982" y1="233.689" x2="215.982" y2="254.324" transform="matrix(-0.707107, 0.707107, -0.707107, -0.707107, 541.242979, 263.822818)"/>
    </g>
  </g>
  <g transform="matrix(1.033713, 0, 0, 1.163489, 200.485687, -183.729462)" style="">
    <desc>x pour scatterchart
</desc>
    <title>x8</title>
    <g style="" transform="matrix(0.623474, 0, 0, 0.623474, 78.575905, 89.127907)">
      <line style="stroke: rgb(0, 0, 0);" x1="215.982" y1="233.689" x2="215.982" y2="254.324" transform="matrix(0.707107, 0.707107, -0.707107, 0.707107, 235.798313, -81.254484)"/>
      <line style="stroke: rgb(0, 0, 0);" x1="215.982" y1="233.689" x2="215.982" y2="254.324" transform="matrix(-0.707107, 0.707107, -0.707107, -0.707107, 541.242979, 263.822818)"/>
    </g>
  </g>
  <g transform="matrix(1.033713, 0, 0, 1.163489, 156.576233, -204.424637)" style="">
    <title>x9</title>
    <g style="" transform="matrix(0.623474, 0, 0, 0.623474, 78.575905, 89.127907)">
      <line style="stroke: rgb(0, 0, 0);" x1="215.982" y1="233.689" x2="215.982" y2="254.324" transform="matrix(0.707107, 0.707107, -0.707107, 0.707107, 235.798313, -81.254484)"/>
      <line style="stroke: rgb(0, 0, 0);" x1="215.982" y1="233.689" x2="215.982" y2="254.324" transform="matrix(-0.707107, 0.707107, -0.707107, -0.707107, 541.242979, 263.822818)"/>
    </g>
  </g>
  <line style="stroke: rgb(0, 0, 0);" x1="312.525" y1="165.738" x2="475.936" y2="39.368"/>
  <g transform="matrix(1.033713, 0, 0, 1.163489, -63.661598, -47.359627)" style="">
    <title>violon1</title>
    <path style="fill: rgb(216, 216, 216); stroke: rgb(0, 0, 0);" d="M 194.008 405.758 C 193.229 380.406 175.134 366.757 174.65 343.356 C 174.166 319.955 182.581 306.794 187.905 294.607 C 193.229 282.419 194.008 259.506 194.008 259.506"/>
    <path style="fill: rgb(216, 216, 216); stroke: rgb(0, 0, 0);" d="M 213.386 259.506 C 212.607 284.857 194.512 298.506 194.028 321.907 C 193.544 345.308 201.959 358.47 207.283 370.657 C 212.607 382.844 213.386 405.758 213.386 405.758" transform="matrix(-1, 0, 0, -1, 407.394012, 665.264008)"/>
  </g>
  <path style="fill: rgb(216, 216, 216); stroke: rgb(0, 0, 0);" d="M 196.159 420.813 C 195.293 392.852 175.19 377.798 174.652 351.988 C 174.114 326.178 183.463 311.662 189.378 298.22 C 195.293 284.778 196.159 259.506 196.159 259.506" transform="matrix(-1, 0, 0, -1, 0, 11)"/>
  <g transform="matrix(0.695234, 0, 0, 1.163489, -146.983704, -78.012863)" style="">
    <title>violon2</title>
    <path style="fill: rgb(216, 216, 216); stroke: rgb(0, 0, 0);" d="M 305.579 432.104 C 304.918 413.091 289.585 402.854 289.175 385.304 C 288.764 367.753 295.895 357.882 300.407 348.741 C 304.918 339.601 305.579 322.416 305.579 322.416"/>
    <path style="fill: rgb(216, 216, 216); stroke: rgb(0, 0, 0);" d="M 322 322.416 C 321.34 341.429 306.006 351.666 305.596 369.217 C 305.186 386.767 312.316 396.639 316.828 405.779 C 321.34 414.919 322 432.104 322 432.104" transform="matrix(-1, 0, 0, -1, 627.579071, 754.519989)"/>
  </g>
  <title>violon3</title>
  <g transform="matrix(1.033713, 0, 0, 1.163489, -3.395278, -35.798088)" style="">
    <path style="fill: rgb(216, 216, 216); stroke: rgb(0, 0, 0);" d="M 207.988 424.577 C 207.49 399.225 195.923 385.576 195.613 362.175 C 195.304 338.774 200.683 325.613 204.087 313.426 C 207.49 301.238 207.988 278.325 207.988 278.325"/>
    <path style="fill: rgb(216, 216, 216); stroke: rgb(0, 0, 0);" d="M 220.377 278.325 C 219.878 303.676 208.311 317.325 208.001 340.726 C 207.692 364.127 213.071 377.289 216.475 389.476 C 219.878 401.663 220.377 424.577 220.377 424.577" transform="matrix(-1, 0, 0, -1, 428.365265, 702.902008)"/>
  </g>
  <g style="" transform="matrix(1.033713, 0, 0, 1.163489, -8.635813, -39.226891)">
    <line style="stroke: rgb(0, 0, 0); stroke-width: 0.2px;" x1="35.627" y1="427.524" x2="249.389" y2="427.524"/>
    <line style="stroke: rgb(0, 0, 0); stroke-width: 0.2px;" x1="35.627" y1="391.897" x2="249.389" y2="391.897"/>
    <line style="stroke: rgb(0, 0, 0); stroke-width: 0.2px;" x1="35.627" y1="356.27" x2="249.389" y2="356.27"/>
    <line style="stroke: rgb(0, 0, 0); stroke-width: 0.2px;" x1="35.627" y1="320.643" x2="249.389" y2="320.643"/>
    <line style="stroke: rgb(0, 0, 0); stroke-width: 0.2px;" x1="35.627" y1="285.016" x2="249.389" y2="285.016"/>
    <line style="stroke: rgb(0, 0, 0); stroke-width: 0.2px;" x1="35.627" y1="249.389" x2="249.389" y2="249.389"/>
  </g>
  <polyline style="fill: rgb(216, 216, 216); stroke: rgb(0, 0, 0);" points="321.441 419.2"/>
  <polygon style="fill: rgb(216, 216, 216); stroke: rgb(0, 0, 0); stroke-opacity: 0;" points="301.834 395.288 343.979 378.691 386.218 329.587 427.839 321.219 470.185 259.157 470.156 327.875 428.054 352.789 385.897 351.844 343.973 393.396 302.019 406.635 301.97 399.979"/>
  <polygon style="stroke: rgb(0, 0, 0); fill: rgba(216, 216, 216, 0.28); stroke-opacity: 0;" points="301.847 416.753 343.991 412.106 386.341 374.233 428.152 379.317 469.795 366.101 470.121 328.337 428.312 352.732 385.9 351.725 343.696 393.396 301.742 406.635 301.693 399.979"/>
  <polygon style="stroke: rgb(0, 0, 0); fill: rgba(216, 216, 216, 0.57); stroke-opacity: 0;" points="301.847 416.753 343.991 412.106 386.341 374.233 428.152 379.317 469.795 366.101 469.636 378.574 427.948 396.482 385.9 402.734 344.301 423.238 302.225 424.735 301.693 399.979"/>
  <line style="stroke: rgb(0, 0, 0);" x1="285.989" y1="259.157" x2="285.989" y2="458.192"/>
  <line style="stroke: rgb(0, 0, 0);" x1="285.989" y1="458.192" x2="484.127" y2="458.192"/>
</svg>